<svg width="60" height="60" viewBox="0 0 60 60" fill="none" xmlns="http://www.w3.org/2000/svg">
<path d="M8.78598 51.2103C-2.92866 39.4956 -2.92866 20.5006 8.78598 8.78598C20.5044 -2.92866 39.4956 -2.92866 51.214 8.78598C62.9287 20.5006 62.9287 39.4956 51.214 51.2103C39.4956 62.9268 20.5044 62.9268 8.78598 51.2103ZM45.9117 14.0883C37.122 5.30046 22.878 5.30046 14.0921 14.0883C5.30233 22.8762 5.30233 37.1201 14.0921 45.9079C22.878 54.6958 37.122 54.6958 45.9117 45.9079C54.6977 37.1201 54.6977 22.8762 45.9117 14.0883ZM22.0474 43.2568L16.7451 37.9526L24.6986 29.9991L16.7451 22.0456L22.0474 16.7414L30.0009 24.6967L37.9544 16.7414L43.2568 22.0456L35.3033 29.9991L43.2568 37.9526L37.9544 43.2568L30.0009 35.3014L22.0474 43.2568Z" fill="#C8D1E1"/>
</svg>
