<svg width="101" height="90" viewBox="0 0 101 90" fill="none" xmlns="http://www.w3.org/2000/svg">
<g clip-path="url(#clip0_36_445)">
<path fill-rule="evenodd" clip-rule="evenodd" d="M28.9285 82.5L42.0537 85.9824V81.4286L43.1251 80.3572H50.6251V85.7143V89.4643H42.5894L32.6785 85.1786L28.9285 82.5Z" fill="#CDBDB2"/>
<path fill-rule="evenodd" clip-rule="evenodd" d="M71.7856 82.5L58.9285 85.9824V81.4286L57.8571 80.3572H50.3571V85.7143V89.4643H58.3928L68.3033 85.1786L71.7856 82.5Z" fill="#CDBDB2"/>
<path fill-rule="evenodd" clip-rule="evenodd" d="M43.1251 72.5895L42.0537 81.4286L43.3928 80.3571H57.3213L58.9285 81.4286L57.857 72.5895L55.7142 71.25L44.9999 71.5181L43.1251 72.5895Z" fill="#393939"/>
<path fill-rule="evenodd" clip-rule="evenodd" d="M35.8928 12.8572L42.3214 27.8572L45.2681 71.5181H55.7143L58.9285 27.8572L64.8214 12.8572H35.8928Z" fill="#F89C35"/>
<path fill-rule="evenodd" clip-rule="evenodd" d="M7.76807 45.8038L0.268066 67.5L19.0181 66.4286H31.0714V57.0538L30.5357 37.7681L27.8571 39.911L7.76807 45.8038Z" fill="#F89D35"/>
<path fill-rule="evenodd" clip-rule="evenodd" d="M21.9644 48.2143L43.9286 48.75L41.5182 60L31.0715 57.3214L21.9644 48.2143Z" fill="#D87C30"/>
<path fill-rule="evenodd" clip-rule="evenodd" d="M21.9644 48.4824L31.0715 57.0539V65.6253L21.9644 48.4824Z" fill="#EA8D3A"/>
<path fill-rule="evenodd" clip-rule="evenodd" d="M31.0713 57.3215L41.7856 60L45.268 71.5181L42.857 72.8572L31.0713 65.8929V57.3215Z" fill="#F89D35"/>
<path fill-rule="evenodd" clip-rule="evenodd" d="M31.0713 65.8929L28.9285 82.5L43.1251 72.5896L31.0713 65.8929Z" fill="#EB8F35"/>
<path fill-rule="evenodd" clip-rule="evenodd" d="M43.9286 48.75L45.2681 71.5181L41.25 59.8662L43.9286 48.75Z" fill="#EA8E3A"/>
<path fill-rule="evenodd" clip-rule="evenodd" d="M18.75 66.161L31.0714 65.8929L28.9286 82.5L18.75 66.161Z" fill="#D87C30"/>
<path fill-rule="evenodd" clip-rule="evenodd" d="M6.16092 89.7324L28.9285 82.5001L18.75 66.161L0.268066 67.5001L6.16092 89.7324Z" fill="#EB8F35"/>
<path fill-rule="evenodd" clip-rule="evenodd" d="M42.3215 27.8572L30.8039 37.5L21.9644 48.2143L43.9286 49.0181L42.3215 27.8572Z" fill="#E8821E"/>
<path fill-rule="evenodd" clip-rule="evenodd" d="M28.9285 82.5L43.1251 72.5895L42.0537 81.161V85.9824L32.4109 84.1072L28.9285 82.5Z" fill="#DFCEC3"/>
<path fill-rule="evenodd" clip-rule="evenodd" d="M71.7856 82.5L57.8571 72.5895L58.9285 81.161V85.9824L68.5714 84.1072L71.7856 82.5Z" fill="#DFCEC3"/>
<path fill-rule="evenodd" clip-rule="evenodd" d="M38.0358 53.5715L40.9824 59.7324L30.5358 57.0539L38.0358 53.5715Z" fill="#393939"/>
<path fill-rule="evenodd" clip-rule="evenodd" d="M5.89282 0.268127L42.3214 27.8572L36.1609 12.8572L5.89282 0.268127Z" fill="#E88F35"/>
<path fill-rule="evenodd" clip-rule="evenodd" d="M5.89272 0.267883L1.07129 15L3.74986 31.0715L1.87486 32.1429L4.55343 34.5536L2.41057 36.4286L5.357 39.1072L3.482 40.7143L7.76772 46.0715L27.857 39.9107C37.6784 32.0536 42.4999 28.0357 42.3213 27.8572C42.1427 27.6786 29.9999 18.4822 5.89272 0.267883Z" fill="#8E5A30"/>
<path fill-rule="evenodd" clip-rule="evenodd" d="M92.9463 45.8038L100.446 67.5L81.6963 66.4286H69.643V57.0538L70.1787 37.7681L72.8572 39.911L92.9463 45.8038Z" fill="#F89D35"/>
<path fill-rule="evenodd" clip-rule="evenodd" d="M78.75 48.2143L56.7857 48.75L59.1962 60L69.6429 57.3214L78.75 48.2143Z" fill="#D87C30"/>
<path fill-rule="evenodd" clip-rule="evenodd" d="M78.75 48.4824L69.6429 57.0539V65.6253L78.75 48.4824Z" fill="#EA8D3A"/>
<path fill-rule="evenodd" clip-rule="evenodd" d="M69.6431 57.3215L58.9288 60L55.4464 71.5181L57.8573 72.8572L69.6431 65.8929V57.3215Z" fill="#F89D35"/>
<path fill-rule="evenodd" clip-rule="evenodd" d="M69.643 65.8929L71.7859 82.5L57.8573 72.8572L69.643 65.8929Z" fill="#EB8F35"/>
<path fill-rule="evenodd" clip-rule="evenodd" d="M56.7858 48.75L55.4463 71.5181L59.4644 59.8662L56.7858 48.75Z" fill="#EA8E3A"/>
<path fill-rule="evenodd" clip-rule="evenodd" d="M81.9644 66.161L69.6429 65.8929L71.7858 82.5L81.9644 66.161Z" fill="#D87C30"/>
<path fill-rule="evenodd" clip-rule="evenodd" d="M94.5534 89.7324L71.7858 82.5001L81.9644 66.161L100.446 67.5001L94.5534 89.7324Z" fill="#EB8F35"/>
<path fill-rule="evenodd" clip-rule="evenodd" d="M58.3929 27.8572L69.9105 37.5L78.75 48.2143L56.7857 49.0181L58.3929 27.8572Z" fill="#E8821E"/>
<path fill-rule="evenodd" clip-rule="evenodd" d="M62.6786 53.5715L59.7319 59.7324L70.1786 57.0539L62.6786 53.5715Z" fill="#393939"/>
<path fill-rule="evenodd" clip-rule="evenodd" d="M94.8215 0.268127L58.3929 27.8572L64.5534 12.8572L94.8215 0.268127Z" fill="#E88F35"/>
<path fill-rule="evenodd" clip-rule="evenodd" d="M94.8216 0.267883L99.6431 15L96.9645 31.0715L98.8395 32.1429L96.1609 34.5536L98.3038 36.4286L95.3574 39.1072L97.2324 40.7143L92.9466 46.0715L72.8573 39.9107C63.0359 32.0536 58.2145 28.0357 58.3931 27.8572C58.5716 27.6786 70.7145 18.4822 94.8216 0.267883Z" fill="#8E5A30"/>
</g>
<defs>
<clipPath id="clip0_36_445">
<rect width="100.952" height="90" fill="white"/>
</clipPath>
</defs>
</svg>
