<svg width="146" height="90" viewBox="0 0 146 90" fill="none" xmlns="http://www.w3.org/2000/svg">
<path d="M29.8889 17.6382C53.6836 -5.65877 92.2624 -5.65877 116.057 17.6382L118.921 20.442C120.11 21.6068 120.11 23.4954 118.921 24.6603L109.124 34.2516C108.53 34.834 107.565 34.834 106.97 34.2516L103.029 30.3932C86.4297 14.1407 59.5162 14.1407 42.9165 30.3932L38.6962 34.5252C38.1013 35.1077 37.1368 35.1077 36.542 34.5252L26.7458 24.9339C25.556 23.7691 25.556 21.8805 26.7458 20.7156L29.8889 17.6382ZM136.317 37.4741L145.035 46.0104C146.225 47.1752 146.225 49.0638 145.035 50.2286L105.722 88.72C104.532 89.8849 102.603 89.8849 101.414 88.72C101.414 88.72 101.414 88.72 101.414 88.72L73.5117 61.4016C73.2143 61.1104 72.732 61.1104 72.4346 61.4016C72.4346 61.4016 72.4346 61.4016 72.4346 61.4016L44.5332 88.72C43.3435 89.8849 41.4145 89.8849 40.2248 88.7201C40.2248 88.72 40.2248 88.72 40.2248 88.72L0.91061 50.2282C-0.279123 49.0633 -0.279123 47.1747 0.91061 46.0099L9.62929 37.4736C10.819 36.3087 12.748 36.3087 13.9377 37.4736L41.8401 64.7924C42.1375 65.0836 42.6198 65.0836 42.9172 64.7924C42.9172 64.7924 42.9172 64.7924 42.9172 64.7924L70.8183 37.4736C72.008 36.3087 73.9369 36.3086 75.1267 37.4735C75.1267 37.4735 75.1267 37.4735 75.1267 37.4735L103.029 64.7924C103.327 65.0836 103.809 65.0836 104.106 64.7924L132.008 37.4741C133.198 36.3092 135.127 36.3092 136.317 37.4741Z" fill="#3B99FC"/>
</svg>
